<?xml version="1.0" encoding="utf-8" standalone="no"?>
<!DOCTYPE svg PUBLIC "-//W3C//DTD SVG 1.1//EN"
  "http://www.w3.org/Graphics/SVG/1.1/DTD/svg11.dtd">
<svg xmlns:xlink="http://www.w3.org/1999/xlink" width="2304pt" height="864pt" viewBox="0 0 2304 864" xmlns="http://www.w3.org/2000/svg" version="1.1">
 <metadata>
  <rdf:RDF xmlns:dc="http://purl.org/dc/elements/1.1/" xmlns:cc="http://creativecommons.org/ns#" xmlns:rdf="http://www.w3.org/1999/02/22-rdf-syntax-ns#">
   <cc:Work>
    <dc:type rdf:resource="http://purl.org/dc/dcmitype/StillImage"/>
    <dc:date>2022-10-26T18:32:20.640449</dc:date>
    <dc:format>image/svg+xml</dc:format>
    <dc:creator>
     <cc:Agent>
      <dc:title>Matplotlib v3.6.1, https://matplotlib.org/</dc:title>
     </cc:Agent>
    </dc:creator>
   </cc:Work>
  </rdf:RDF>
 </metadata>
 <defs>
  <style type="text/css">*{stroke-linejoin: round; stroke-linecap: butt}</style>
 </defs>
 <g id="figure_1">
  <g id="patch_1">
   <path d="M 0 864 
L 2304 864 
L 2304 0 
L 0 0 
z
" style="fill: #ffffff"/>
  </g>
  <g id="axes_1">
   <g id="line2d_1">
    <path d="M 760.988088 188.901818 
L 1208.787461 133.92 
L 1656.586834 188.901818 
" clip-path="url(#p192c0ac47c)" style="fill: none; stroke: #1f77b4; stroke-width: 1.5; stroke-linecap: square"/>
   </g>
   <g id="line2d_2">
    <path d="M 537.088401 243.883636 
L 760.988088 188.901818 
L 984.887774 243.883636 
" clip-path="url(#p192c0ac47c)" style="fill: none; stroke: #ff7f0e; stroke-width: 1.5; stroke-linecap: square"/>
   </g>
   <g id="line2d_3">
    <path d="M 425.138558 298.865455 
L 537.088401 243.883636 
L 649.038245 298.865455 
" clip-path="url(#p192c0ac47c)" style="fill: none; stroke: #2ca02c; stroke-width: 1.5; stroke-linecap: square"/>
   </g>
   <g id="line2d_4">
    <path d="M 369.163636 353.847273 
L 425.138558 298.865455 
L 481.11348 353.847273 
" clip-path="url(#p192c0ac47c)" style="fill: none; stroke: #d62728; stroke-width: 1.5; stroke-linecap: square"/>
   </g>
   <g id="line2d_5">
    <path d="M 453.126019 408.829091 
L 481.11348 353.847273 
L 509.10094 408.829091 
" clip-path="url(#p192c0ac47c)" style="fill: none; stroke: #9467bd; stroke-width: 1.5; stroke-linecap: square"/>
   </g>
   <g id="line2d_6">
    <path d="M 872.937931 298.865455 
L 984.887774 243.883636 
L 1096.837618 298.865455 
" clip-path="url(#p192c0ac47c)" style="fill: none; stroke: #8c564b; stroke-width: 1.5; stroke-linecap: square"/>
   </g>
   <g id="line2d_7">
    <path d="M 816.963009 353.847273 
L 872.937931 298.865455 
L 928.912853 353.847273 
" clip-path="url(#p192c0ac47c)" style="fill: none; stroke: #e377c2; stroke-width: 1.5; stroke-linecap: square"/>
   </g>
   <g id="line2d_8">
    <path d="M 1432.687147 243.883636 
L 1656.586834 188.901818 
L 1880.48652 243.883636 
" clip-path="url(#p192c0ac47c)" style="fill: none; stroke: #7f7f7f; stroke-width: 1.5; stroke-linecap: square"/>
   </g>
   <g id="line2d_9">
    <path d="M 1320.737304 298.865455 
L 1432.687147 243.883636 
L 1544.636991 298.865455 
" clip-path="url(#p192c0ac47c)" style="fill: none; stroke: #bcbd22; stroke-width: 1.5; stroke-linecap: square"/>
   </g>
   <g id="line2d_10">
    <path d="M 1264.762382 353.847273 
L 1320.737304 298.865455 
L 1376.712226 353.847273 
" clip-path="url(#p192c0ac47c)" style="fill: none; stroke: #17becf; stroke-width: 1.5; stroke-linecap: square"/>
   </g>
   <g id="line2d_11">
    <path d="M 1348.724765 408.829091 
L 1376.712226 353.847273 
L 1404.699687 408.829091 
" clip-path="url(#p192c0ac47c)" style="fill: none; stroke: #1f77b4; stroke-width: 1.5; stroke-linecap: square"/>
   </g>
   <g id="line2d_12">
    <path d="M 1390.705956 463.810909 
L 1404.699687 408.829091 
L 1418.693417 463.810909 
" clip-path="url(#p192c0ac47c)" style="fill: none; stroke: #ff7f0e; stroke-width: 1.5; stroke-linecap: square"/>
   </g>
   <g id="line2d_13">
    <path d="M 1488.662069 353.847273 
L 1544.636991 298.865455 
L 1600.611912 353.847273 
" clip-path="url(#p192c0ac47c)" style="fill: none; stroke: #2ca02c; stroke-width: 1.5; stroke-linecap: square"/>
   </g>
   <g id="line2d_14">
    <path d="M 1460.674608 408.829091 
L 1488.662069 353.847273 
L 1516.64953 408.829091 
" clip-path="url(#p192c0ac47c)" style="fill: none; stroke: #d62728; stroke-width: 1.5; stroke-linecap: square"/>
   </g>
   <g id="line2d_15">
    <path d="M 1446.680878 463.810909 
L 1460.674608 408.829091 
L 1474.668339 463.810909 
" clip-path="url(#p192c0ac47c)" style="fill: none; stroke: #9467bd; stroke-width: 1.5; stroke-linecap: square"/>
   </g>
   <g id="line2d_16">
    <path d="M 1439.684013 518.792727 
L 1446.680878 463.810909 
L 1453.677743 518.792727 
" clip-path="url(#p192c0ac47c)" style="fill: none; stroke: #8c564b; stroke-width: 1.5; stroke-linecap: square"/>
   </g>
   <g id="line2d_17">
    <path d="M 1436.18558 573.774545 
L 1439.684013 518.792727 
L 1443.182445 573.774545 
" clip-path="url(#p192c0ac47c)" style="fill: none; stroke: #e377c2; stroke-width: 1.5; stroke-linecap: square"/>
   </g>
   <g id="line2d_18">
    <path d="M 1441.433229 628.756364 
L 1443.182445 573.774545 
L 1444.931661 628.756364 
" clip-path="url(#p192c0ac47c)" style="fill: none; stroke: #7f7f7f; stroke-width: 1.5; stroke-linecap: square"/>
   </g>
   <g id="line2d_19">
    <path d="M 1440.558621 683.738182 
L 1441.433229 628.756364 
L 1442.307837 683.738182 
" clip-path="url(#p192c0ac47c)" style="fill: none; stroke: #bcbd22; stroke-width: 1.5; stroke-linecap: square"/>
   </g>
   <g id="line2d_20">
    <path d="M 1441.870533 738.72 
L 1442.307837 683.738182 
L 1442.745141 738.72 
" clip-path="url(#p192c0ac47c)" style="fill: none; stroke: #17becf; stroke-width: 1.5; stroke-linecap: square"/>
   </g>
   <g id="line2d_21">
    <path d="M 1467.671473 518.792727 
L 1474.668339 463.810909 
L 1481.665204 518.792727 
" clip-path="url(#p192c0ac47c)" style="fill: none; stroke: #1f77b4; stroke-width: 1.5; stroke-linecap: square"/>
   </g>
   <g id="line2d_22">
    <path d="M 1464.173041 573.774545 
L 1467.671473 518.792727 
L 1471.169906 573.774545 
" clip-path="url(#p192c0ac47c)" style="fill: none; stroke: #ff7f0e; stroke-width: 1.5; stroke-linecap: square"/>
   </g>
   <g id="line2d_23">
    <path d="M 1469.42069 628.756364 
L 1471.169906 573.774545 
L 1472.919122 628.756364 
" clip-path="url(#p192c0ac47c)" style="fill: none; stroke: #2ca02c; stroke-width: 1.5; stroke-linecap: square"/>
   </g>
   <g id="line2d_24">
    <path d="M 1572.624451 408.829091 
L 1600.611912 353.847273 
L 1628.599373 408.829091 
" clip-path="url(#p192c0ac47c)" style="fill: none; stroke: #d62728; stroke-width: 1.5; stroke-linecap: square"/>
   </g>
   <g id="line2d_25">
    <path d="M 1768.536677 298.865455 
L 1880.48652 243.883636 
L 1992.436364 298.865455 
" clip-path="url(#p192c0ac47c)" style="fill: none; stroke: #9467bd; stroke-width: 1.5; stroke-linecap: square"/>
   </g>
   <g id="line2d_26">
    <path d="M 1712.561755 353.847273 
L 1768.536677 298.865455 
L 1824.511599 353.847273 
" clip-path="url(#p192c0ac47c)" style="fill: none; stroke: #8c564b; stroke-width: 1.5; stroke-linecap: square"/>
   </g>
   <g id="text_1">
    <g id="patch_2">
     <path d="M 1183.508514 140.449939 
L 1234.066408 140.449939 
Q 1236.565408 140.449939 1236.565408 137.950939 
L 1236.565408 129.889061 
Q 1236.565408 127.390061 1234.066408 127.390061 
L 1183.508514 127.390061 
Q 1181.009514 127.390061 1181.009514 129.889061 
L 1181.009514 137.950939 
Q 1181.009514 140.449939 1183.508514 140.449939 
z
" style="fill: #ffffff; stroke: #000000; stroke-linejoin: miter"/>
    </g>
    <!-- x[0] &lt; -55.0 -->
    <g transform="translate(1183.508514 136.218559) scale(0.0833 -0.0833)">
     <defs>
      <path id="DejaVuSans-78" d="M 3513 3500 
L 2247 1797 
L 3578 0 
L 2900 0 
L 1881 1375 
L 863 0 
L 184 0 
L 1544 1831 
L 300 3500 
L 978 3500 
L 1906 2253 
L 2834 3500 
L 3513 3500 
z
" transform="scale(0.015625)"/>
      <path id="DejaVuSans-5b" d="M 550 4863 
L 1875 4863 
L 1875 4416 
L 1125 4416 
L 1125 -397 
L 1875 -397 
L 1875 -844 
L 550 -844 
L 550 4863 
z
" transform="scale(0.015625)"/>
      <path id="DejaVuSans-30" d="M 2034 4250 
Q 1547 4250 1301 3770 
Q 1056 3291 1056 2328 
Q 1056 1369 1301 889 
Q 1547 409 2034 409 
Q 2525 409 2770 889 
Q 3016 1369 3016 2328 
Q 3016 3291 2770 3770 
Q 2525 4250 2034 4250 
z
M 2034 4750 
Q 2819 4750 3233 4129 
Q 3647 3509 3647 2328 
Q 3647 1150 3233 529 
Q 2819 -91 2034 -91 
Q 1250 -91 836 529 
Q 422 1150 422 2328 
Q 422 3509 836 4129 
Q 1250 4750 2034 4750 
z
" transform="scale(0.015625)"/>
      <path id="DejaVuSans-5d" d="M 1947 4863 
L 1947 -844 
L 622 -844 
L 622 -397 
L 1369 -397 
L 1369 4416 
L 622 4416 
L 622 4863 
L 1947 4863 
z
" transform="scale(0.015625)"/>
      <path id="DejaVuSans-20" transform="scale(0.015625)"/>
      <path id="DejaVuSans-3c" d="M 4684 3150 
L 1459 2003 
L 4684 863 
L 4684 294 
L 678 1747 
L 678 2266 
L 4684 3719 
L 4684 3150 
z
" transform="scale(0.015625)"/>
      <path id="DejaVuSans-2d" d="M 313 2009 
L 1997 2009 
L 1997 1497 
L 313 1497 
L 313 2009 
z
" transform="scale(0.015625)"/>
      <path id="DejaVuSans-35" d="M 691 4666 
L 3169 4666 
L 3169 4134 
L 1269 4134 
L 1269 2991 
Q 1406 3038 1543 3061 
Q 1681 3084 1819 3084 
Q 2600 3084 3056 2656 
Q 3513 2228 3513 1497 
Q 3513 744 3044 326 
Q 2575 -91 1722 -91 
Q 1428 -91 1123 -41 
Q 819 9 494 109 
L 494 744 
Q 775 591 1075 516 
Q 1375 441 1709 441 
Q 2250 441 2565 725 
Q 2881 1009 2881 1497 
Q 2881 1984 2565 2268 
Q 2250 2553 1709 2553 
Q 1456 2553 1204 2497 
Q 953 2441 691 2322 
L 691 4666 
z
" transform="scale(0.015625)"/>
      <path id="DejaVuSans-2e" d="M 684 794 
L 1344 794 
L 1344 0 
L 684 0 
L 684 794 
z
" transform="scale(0.015625)"/>
     </defs>
     <use xlink:href="#DejaVuSans-78"/>
     <use xlink:href="#DejaVuSans-5b" x="59.179688"/>
     <use xlink:href="#DejaVuSans-30" x="98.193359"/>
     <use xlink:href="#DejaVuSans-5d" x="161.816406"/>
     <use xlink:href="#DejaVuSans-20" x="200.830078"/>
     <use xlink:href="#DejaVuSans-3c" x="232.617188"/>
     <use xlink:href="#DejaVuSans-20" x="316.40625"/>
     <use xlink:href="#DejaVuSans-2d" x="348.193359"/>
     <use xlink:href="#DejaVuSans-35" x="384.277344"/>
     <use xlink:href="#DejaVuSans-35" x="447.900391"/>
     <use xlink:href="#DejaVuSans-2e" x="511.523438"/>
     <use xlink:href="#DejaVuSans-30" x="543.310547"/>
    </g>
   </g>
   <g id="text_2">
    <g id="patch_3">
     <path d="M 735.709141 195.431757 
L 786.267035 195.431757 
Q 788.766035 195.431757 788.766035 192.932757 
L 788.766035 184.870879 
Q 788.766035 182.371879 786.267035 182.371879 
L 735.709141 182.371879 
Q 733.210141 182.371879 733.210141 184.870879 
L 733.210141 192.932757 
Q 733.210141 195.431757 735.709141 195.431757 
z
" style="fill: #ffffff; stroke: #000000; stroke-linejoin: miter"/>
    </g>
    <!-- x[4] &lt; -59.0 -->
    <g transform="translate(735.709141 191.200378) scale(0.0833 -0.0833)">
     <defs>
      <path id="DejaVuSans-34" d="M 2419 4116 
L 825 1625 
L 2419 1625 
L 2419 4116 
z
M 2253 4666 
L 3047 4666 
L 3047 1625 
L 3713 1625 
L 3713 1100 
L 3047 1100 
L 3047 0 
L 2419 0 
L 2419 1100 
L 313 1100 
L 313 1709 
L 2253 4666 
z
" transform="scale(0.015625)"/>
      <path id="DejaVuSans-39" d="M 703 97 
L 703 672 
Q 941 559 1184 500 
Q 1428 441 1663 441 
Q 2288 441 2617 861 
Q 2947 1281 2994 2138 
Q 2813 1869 2534 1725 
Q 2256 1581 1919 1581 
Q 1219 1581 811 2004 
Q 403 2428 403 3163 
Q 403 3881 828 4315 
Q 1253 4750 1959 4750 
Q 2769 4750 3195 4129 
Q 3622 3509 3622 2328 
Q 3622 1225 3098 567 
Q 2575 -91 1691 -91 
Q 1453 -91 1209 -44 
Q 966 3 703 97 
z
M 1959 2075 
Q 2384 2075 2632 2365 
Q 2881 2656 2881 3163 
Q 2881 3666 2632 3958 
Q 2384 4250 1959 4250 
Q 1534 4250 1286 3958 
Q 1038 3666 1038 3163 
Q 1038 2656 1286 2365 
Q 1534 2075 1959 2075 
z
" transform="scale(0.015625)"/>
     </defs>
     <use xlink:href="#DejaVuSans-78"/>
     <use xlink:href="#DejaVuSans-5b" x="59.179688"/>
     <use xlink:href="#DejaVuSans-34" x="98.193359"/>
     <use xlink:href="#DejaVuSans-5d" x="161.816406"/>
     <use xlink:href="#DejaVuSans-20" x="200.830078"/>
     <use xlink:href="#DejaVuSans-3c" x="232.617188"/>
     <use xlink:href="#DejaVuSans-20" x="316.40625"/>
     <use xlink:href="#DejaVuSans-2d" x="348.193359"/>
     <use xlink:href="#DejaVuSans-35" x="384.277344"/>
     <use xlink:href="#DejaVuSans-39" x="447.900391"/>
     <use xlink:href="#DejaVuSans-2e" x="511.523438"/>
     <use xlink:href="#DejaVuSans-30" x="543.310547"/>
    </g>
   </g>
   <g id="text_3">
    <g id="patch_4">
     <path d="M 511.809454 250.413575 
L 562.367348 250.413575 
Q 564.866348 250.413575 564.866348 247.914575 
L 564.866348 239.852697 
Q 564.866348 237.353697 562.367348 237.353697 
L 511.809454 237.353697 
Q 509.310454 237.353697 509.310454 239.852697 
L 509.310454 247.914575 
Q 509.310454 250.413575 511.809454 250.413575 
z
" style="fill: #ffffff; stroke: #000000; stroke-linejoin: miter"/>
    </g>
    <!-- x[3] &lt; -55.0 -->
    <g transform="translate(511.809454 246.182196) scale(0.0833 -0.0833)">
     <defs>
      <path id="DejaVuSans-33" d="M 2597 2516 
Q 3050 2419 3304 2112 
Q 3559 1806 3559 1356 
Q 3559 666 3084 287 
Q 2609 -91 1734 -91 
Q 1441 -91 1130 -33 
Q 819 25 488 141 
L 488 750 
Q 750 597 1062 519 
Q 1375 441 1716 441 
Q 2309 441 2620 675 
Q 2931 909 2931 1356 
Q 2931 1769 2642 2001 
Q 2353 2234 1838 2234 
L 1294 2234 
L 1294 2753 
L 1863 2753 
Q 2328 2753 2575 2939 
Q 2822 3125 2822 3475 
Q 2822 3834 2567 4026 
Q 2313 4219 1838 4219 
Q 1578 4219 1281 4162 
Q 984 4106 628 3988 
L 628 4550 
Q 988 4650 1302 4700 
Q 1616 4750 1894 4750 
Q 2613 4750 3031 4423 
Q 3450 4097 3450 3541 
Q 3450 3153 3228 2886 
Q 3006 2619 2597 2516 
z
" transform="scale(0.015625)"/>
     </defs>
     <use xlink:href="#DejaVuSans-78"/>
     <use xlink:href="#DejaVuSans-5b" x="59.179688"/>
     <use xlink:href="#DejaVuSans-33" x="98.193359"/>
     <use xlink:href="#DejaVuSans-5d" x="161.816406"/>
     <use xlink:href="#DejaVuSans-20" x="200.830078"/>
     <use xlink:href="#DejaVuSans-3c" x="232.617188"/>
     <use xlink:href="#DejaVuSans-20" x="316.40625"/>
     <use xlink:href="#DejaVuSans-2d" x="348.193359"/>
     <use xlink:href="#DejaVuSans-35" x="384.277344"/>
     <use xlink:href="#DejaVuSans-35" x="447.900391"/>
     <use xlink:href="#DejaVuSans-2e" x="511.523438"/>
     <use xlink:href="#DejaVuSans-30" x="543.310547"/>
    </g>
   </g>
   <g id="text_4">
    <g id="patch_5">
     <path d="M 399.859611 305.395394 
L 450.417505 305.395394 
Q 452.916505 305.395394 452.916505 302.896394 
L 452.916505 294.834515 
Q 452.916505 292.335515 450.417505 292.335515 
L 399.859611 292.335515 
Q 397.360611 292.335515 397.360611 294.834515 
L 397.360611 302.896394 
Q 397.360611 305.395394 399.859611 305.395394 
z
" style="fill: #ffffff; stroke: #000000; stroke-linejoin: miter"/>
    </g>
    <!-- x[2] &lt; -54.0 -->
    <g transform="translate(399.859611 301.164014) scale(0.0833 -0.0833)">
     <defs>
      <path id="DejaVuSans-32" d="M 1228 531 
L 3431 531 
L 3431 0 
L 469 0 
L 469 531 
Q 828 903 1448 1529 
Q 2069 2156 2228 2338 
Q 2531 2678 2651 2914 
Q 2772 3150 2772 3378 
Q 2772 3750 2511 3984 
Q 2250 4219 1831 4219 
Q 1534 4219 1204 4116 
Q 875 4013 500 3803 
L 500 4441 
Q 881 4594 1212 4672 
Q 1544 4750 1819 4750 
Q 2544 4750 2975 4387 
Q 3406 4025 3406 3419 
Q 3406 3131 3298 2873 
Q 3191 2616 2906 2266 
Q 2828 2175 2409 1742 
Q 1991 1309 1228 531 
z
" transform="scale(0.015625)"/>
     </defs>
     <use xlink:href="#DejaVuSans-78"/>
     <use xlink:href="#DejaVuSans-5b" x="59.179688"/>
     <use xlink:href="#DejaVuSans-32" x="98.193359"/>
     <use xlink:href="#DejaVuSans-5d" x="161.816406"/>
     <use xlink:href="#DejaVuSans-20" x="200.830078"/>
     <use xlink:href="#DejaVuSans-3c" x="232.617188"/>
     <use xlink:href="#DejaVuSans-20" x="316.40625"/>
     <use xlink:href="#DejaVuSans-2d" x="348.193359"/>
     <use xlink:href="#DejaVuSans-35" x="384.277344"/>
     <use xlink:href="#DejaVuSans-34" x="447.900391"/>
     <use xlink:href="#DejaVuSans-2e" x="511.523438"/>
     <use xlink:href="#DejaVuSans-30" x="543.310547"/>
    </g>
   </g>
   <g id="text_5">
    <g id="patch_6">
     <path d="M 369.163636 362.969924 
C 371.582992 362.969924 373.903582 362.008704 375.614325 360.297962 
C 377.325068 358.587219 378.286288 356.266628 378.286288 353.847273 
C 378.286288 351.427917 377.325068 349.107327 375.614325 347.396584 
C 373.903582 345.685841 371.582992 344.724621 369.163636 344.724621 
C 366.744281 344.724621 364.42369 345.685841 362.712948 347.396584 
C 361.002205 349.107327 360.040985 351.427917 360.040985 353.847273 
C 360.040985 356.266628 361.002205 358.587219 362.712948 360.297962 
C 364.42369 362.008704 366.744281 362.969924 369.163636 362.969924 
z
" style="fill: #4cff4c; stroke: #000000; stroke-linejoin: miter"/>
    </g>
    <!-- 1.0 -->
    <g transform="translate(362.539985 356.145832) scale(0.0833 -0.0833)">
     <defs>
      <path id="DejaVuSans-31" d="M 794 531 
L 1825 531 
L 1825 4091 
L 703 3866 
L 703 4441 
L 1819 4666 
L 2450 4666 
L 2450 531 
L 3481 531 
L 3481 0 
L 794 0 
L 794 531 
z
" transform="scale(0.015625)"/>
     </defs>
     <use xlink:href="#DejaVuSans-31"/>
     <use xlink:href="#DejaVuSans-2e" x="63.623047"/>
     <use xlink:href="#DejaVuSans-30" x="95.410156"/>
    </g>
   </g>
   <g id="text_6">
    <g id="patch_7">
     <path d="M 455.834533 360.377212 
L 506.392426 360.377212 
Q 508.891426 360.377212 508.891426 357.878212 
L 508.891426 349.816334 
Q 508.891426 347.317334 506.392426 347.317334 
L 455.834533 347.317334 
Q 453.335533 347.317334 453.335533 349.816334 
L 453.335533 357.878212 
Q 453.335533 360.377212 455.834533 360.377212 
z
" style="fill: #ffffff; stroke: #000000; stroke-linejoin: miter"/>
    </g>
    <!-- x[5] &lt; -86.0 -->
    <g transform="translate(455.834533 356.145832) scale(0.0833 -0.0833)">
     <defs>
      <path id="DejaVuSans-38" d="M 2034 2216 
Q 1584 2216 1326 1975 
Q 1069 1734 1069 1313 
Q 1069 891 1326 650 
Q 1584 409 2034 409 
Q 2484 409 2743 651 
Q 3003 894 3003 1313 
Q 3003 1734 2745 1975 
Q 2488 2216 2034 2216 
z
M 1403 2484 
Q 997 2584 770 2862 
Q 544 3141 544 3541 
Q 544 4100 942 4425 
Q 1341 4750 2034 4750 
Q 2731 4750 3128 4425 
Q 3525 4100 3525 3541 
Q 3525 3141 3298 2862 
Q 3072 2584 2669 2484 
Q 3125 2378 3379 2068 
Q 3634 1759 3634 1313 
Q 3634 634 3220 271 
Q 2806 -91 2034 -91 
Q 1263 -91 848 271 
Q 434 634 434 1313 
Q 434 1759 690 2068 
Q 947 2378 1403 2484 
z
M 1172 3481 
Q 1172 3119 1398 2916 
Q 1625 2713 2034 2713 
Q 2441 2713 2670 2916 
Q 2900 3119 2900 3481 
Q 2900 3844 2670 4047 
Q 2441 4250 2034 4250 
Q 1625 4250 1398 4047 
Q 1172 3844 1172 3481 
z
" transform="scale(0.015625)"/>
      <path id="DejaVuSans-36" d="M 2113 2584 
Q 1688 2584 1439 2293 
Q 1191 2003 1191 1497 
Q 1191 994 1439 701 
Q 1688 409 2113 409 
Q 2538 409 2786 701 
Q 3034 994 3034 1497 
Q 3034 2003 2786 2293 
Q 2538 2584 2113 2584 
z
M 3366 4563 
L 3366 3988 
Q 3128 4100 2886 4159 
Q 2644 4219 2406 4219 
Q 1781 4219 1451 3797 
Q 1122 3375 1075 2522 
Q 1259 2794 1537 2939 
Q 1816 3084 2150 3084 
Q 2853 3084 3261 2657 
Q 3669 2231 3669 1497 
Q 3669 778 3244 343 
Q 2819 -91 2113 -91 
Q 1303 -91 875 529 
Q 447 1150 447 2328 
Q 447 3434 972 4092 
Q 1497 4750 2381 4750 
Q 2619 4750 2861 4703 
Q 3103 4656 3366 4563 
z
" transform="scale(0.015625)"/>
     </defs>
     <use xlink:href="#DejaVuSans-78"/>
     <use xlink:href="#DejaVuSans-5b" x="59.179688"/>
     <use xlink:href="#DejaVuSans-35" x="98.193359"/>
     <use xlink:href="#DejaVuSans-5d" x="161.816406"/>
     <use xlink:href="#DejaVuSans-20" x="200.830078"/>
     <use xlink:href="#DejaVuSans-3c" x="232.617188"/>
     <use xlink:href="#DejaVuSans-20" x="316.40625"/>
     <use xlink:href="#DejaVuSans-2d" x="348.193359"/>
     <use xlink:href="#DejaVuSans-38" x="384.277344"/>
     <use xlink:href="#DejaVuSans-36" x="447.900391"/>
     <use xlink:href="#DejaVuSans-2e" x="511.523438"/>
     <use xlink:href="#DejaVuSans-30" x="543.310547"/>
    </g>
   </g>
   <g id="text_7">
    <g id="patch_8">
     <path d="M 453.126019 417.951742 
C 455.545374 417.951742 457.865965 416.990522 459.576708 415.27978 
C 461.28745 413.569037 462.24867 411.248446 462.24867 408.829091 
C 462.24867 406.409735 461.28745 404.089145 459.576708 402.378402 
C 457.865965 400.667659 455.545374 399.706439 453.126019 399.706439 
C 450.706663 399.706439 448.386073 400.667659 446.67533 402.378402 
C 444.964587 404.089145 444.003367 406.409735 444.003367 408.829091 
C 444.003367 411.248446 444.964587 413.569037 446.67533 415.27978 
C 448.386073 416.990522 450.706663 417.951742 453.126019 417.951742 
z
" style="fill: #4cff4c; stroke: #000000; stroke-linejoin: miter"/>
    </g>
    <!-- 4.0 -->
    <g transform="translate(446.502367 411.12765) scale(0.0833 -0.0833)">
     <use xlink:href="#DejaVuSans-34"/>
     <use xlink:href="#DejaVuSans-2e" x="63.623047"/>
     <use xlink:href="#DejaVuSans-30" x="95.410156"/>
    </g>
   </g>
   <g id="text_8">
    <g id="patch_9">
     <path d="M 509.10094 417.951742 
C 511.520296 417.951742 513.840887 416.990522 515.551629 415.27978 
C 517.262372 413.569037 518.223592 411.248446 518.223592 408.829091 
C 518.223592 406.409735 517.262372 404.089145 515.551629 402.378402 
C 513.840887 400.667659 511.520296 399.706439 509.10094 399.706439 
C 506.681585 399.706439 504.360994 400.667659 502.650252 402.378402 
C 500.939509 404.089145 499.978289 406.409735 499.978289 408.829091 
C 499.978289 411.248446 500.939509 413.569037 502.650252 415.27978 
C 504.360994 416.990522 506.681585 417.951742 509.10094 417.951742 
z
" style="fill: #4cff4c; stroke: #000000; stroke-linejoin: miter"/>
    </g>
    <!-- 1.0 -->
    <g transform="translate(502.477289 411.12765) scale(0.0833 -0.0833)">
     <use xlink:href="#DejaVuSans-31"/>
     <use xlink:href="#DejaVuSans-2e" x="63.623047"/>
     <use xlink:href="#DejaVuSans-30" x="95.410156"/>
    </g>
   </g>
   <g id="text_9">
    <g id="patch_10">
     <path d="M 649.038245 307.988106 
C 651.4576 307.988106 653.778191 307.026886 655.488933 305.316143 
C 657.199676 303.605401 658.160896 301.28481 658.160896 298.865455 
C 658.160896 296.446099 657.199676 294.125508 655.488933 292.414766 
C 653.778191 290.704023 651.4576 289.742803 649.038245 289.742803 
C 646.618889 289.742803 644.298298 290.704023 642.587556 292.414766 
C 640.876813 294.125508 639.915593 296.446099 639.915593 298.865455 
C 639.915593 301.28481 640.876813 303.605401 642.587556 305.316143 
C 644.298298 307.026886 646.618889 307.988106 649.038245 307.988106 
z
" style="fill: #4cff4c; stroke: #000000; stroke-linejoin: miter"/>
    </g>
    <!-- 3.0 -->
    <g transform="translate(642.414593 301.164014) scale(0.0833 -0.0833)">
     <use xlink:href="#DejaVuSans-33"/>
     <use xlink:href="#DejaVuSans-2e" x="63.623047"/>
     <use xlink:href="#DejaVuSans-30" x="95.410156"/>
    </g>
   </g>
   <g id="text_10">
    <g id="patch_11">
     <path d="M 959.608827 250.413575 
L 1010.166721 250.413575 
Q 1012.665721 250.413575 1012.665721 247.914575 
L 1012.665721 239.852697 
Q 1012.665721 237.353697 1010.166721 237.353697 
L 959.608827 237.353697 
Q 957.109827 237.353697 957.109827 239.852697 
L 957.109827 247.914575 
Q 957.109827 250.413575 959.608827 250.413575 
z
" style="fill: #ffffff; stroke: #000000; stroke-linejoin: miter"/>
    </g>
    <!-- x[4] &lt; -56.5 -->
    <g transform="translate(959.608827 246.182196) scale(0.0833 -0.0833)">
     <use xlink:href="#DejaVuSans-78"/>
     <use xlink:href="#DejaVuSans-5b" x="59.179688"/>
     <use xlink:href="#DejaVuSans-34" x="98.193359"/>
     <use xlink:href="#DejaVuSans-5d" x="161.816406"/>
     <use xlink:href="#DejaVuSans-20" x="200.830078"/>
     <use xlink:href="#DejaVuSans-3c" x="232.617188"/>
     <use xlink:href="#DejaVuSans-20" x="316.40625"/>
     <use xlink:href="#DejaVuSans-2d" x="348.193359"/>
     <use xlink:href="#DejaVuSans-35" x="384.277344"/>
     <use xlink:href="#DejaVuSans-36" x="447.900391"/>
     <use xlink:href="#DejaVuSans-2e" x="511.523438"/>
     <use xlink:href="#DejaVuSans-35" x="543.310547"/>
    </g>
   </g>
   <g id="text_11">
    <g id="patch_12">
     <path d="M 847.658984 305.395394 
L 898.216878 305.395394 
Q 900.715878 305.395394 900.715878 302.896394 
L 900.715878 294.834515 
Q 900.715878 292.335515 898.216878 292.335515 
L 847.658984 292.335515 
Q 845.159984 292.335515 845.159984 294.834515 
L 845.159984 302.896394 
Q 845.159984 305.395394 847.658984 305.395394 
z
" style="fill: #ffffff; stroke: #000000; stroke-linejoin: miter"/>
    </g>
    <!-- x[0] &lt; -56.0 -->
    <g transform="translate(847.658984 301.164014) scale(0.0833 -0.0833)">
     <use xlink:href="#DejaVuSans-78"/>
     <use xlink:href="#DejaVuSans-5b" x="59.179688"/>
     <use xlink:href="#DejaVuSans-30" x="98.193359"/>
     <use xlink:href="#DejaVuSans-5d" x="161.816406"/>
     <use xlink:href="#DejaVuSans-20" x="200.830078"/>
     <use xlink:href="#DejaVuSans-3c" x="232.617188"/>
     <use xlink:href="#DejaVuSans-20" x="316.40625"/>
     <use xlink:href="#DejaVuSans-2d" x="348.193359"/>
     <use xlink:href="#DejaVuSans-35" x="384.277344"/>
     <use xlink:href="#DejaVuSans-36" x="447.900391"/>
     <use xlink:href="#DejaVuSans-2e" x="511.523438"/>
     <use xlink:href="#DejaVuSans-30" x="543.310547"/>
    </g>
   </g>
   <g id="text_12">
    <g id="patch_13">
     <path d="M 816.963009 362.969924 
C 819.382365 362.969924 821.702956 362.008704 823.413698 360.297962 
C 825.124441 358.587219 826.085661 356.266628 826.085661 353.847273 
C 826.085661 351.427917 825.124441 349.107327 823.413698 347.396584 
C 821.702956 345.685841 819.382365 344.724621 816.963009 344.724621 
C 814.543654 344.724621 812.223063 345.685841 810.512321 347.396584 
C 808.801578 349.107327 807.840358 351.427917 807.840358 353.847273 
C 807.840358 356.266628 808.801578 358.587219 810.512321 360.297962 
C 812.223063 362.008704 814.543654 362.969924 816.963009 362.969924 
z
" style="fill: #4cff4c; stroke: #000000; stroke-linejoin: miter"/>
    </g>
    <!-- 4.0 -->
    <g transform="translate(810.339358 356.145832) scale(0.0833 -0.0833)">
     <use xlink:href="#DejaVuSans-34"/>
     <use xlink:href="#DejaVuSans-2e" x="63.623047"/>
     <use xlink:href="#DejaVuSans-30" x="95.410156"/>
    </g>
   </g>
   <g id="text_13">
    <g id="patch_14">
     <path d="M 928.912853 362.969924 
C 931.332208 362.969924 933.652799 362.008704 935.363541 360.297962 
C 937.074284 358.587219 938.035504 356.266628 938.035504 353.847273 
C 938.035504 351.427917 937.074284 349.107327 935.363541 347.396584 
C 933.652799 345.685841 931.332208 344.724621 928.912853 344.724621 
C 926.493497 344.724621 924.172907 345.685841 922.462164 347.396584 
C 920.751421 349.107327 919.790201 351.427917 919.790201 353.847273 
C 919.790201 356.266628 920.751421 358.587219 922.462164 360.297962 
C 924.172907 362.008704 926.493497 362.969924 928.912853 362.969924 
z
" style="fill: #4cff4c; stroke: #000000; stroke-linejoin: miter"/>
    </g>
    <!-- 3.0 -->
    <g transform="translate(922.289201 356.145832) scale(0.0833 -0.0833)">
     <use xlink:href="#DejaVuSans-33"/>
     <use xlink:href="#DejaVuSans-2e" x="63.623047"/>
     <use xlink:href="#DejaVuSans-30" x="95.410156"/>
    </g>
   </g>
   <g id="text_14">
    <g id="patch_15">
     <path d="M 1096.837618 307.988106 
C 1099.256973 307.988106 1101.577564 307.026886 1103.288306 305.316143 
C 1104.999049 303.605401 1105.960269 301.28481 1105.960269 298.865455 
C 1105.960269 296.446099 1104.999049 294.125508 1103.288306 292.414766 
C 1101.577564 290.704023 1099.256973 289.742803 1096.837618 289.742803 
C 1094.418262 289.742803 1092.097671 290.704023 1090.386929 292.414766 
C 1088.676186 294.125508 1087.714966 296.446099 1087.714966 298.865455 
C 1087.714966 301.28481 1088.676186 303.605401 1090.386929 305.316143 
C 1092.097671 307.026886 1094.418262 307.988106 1096.837618 307.988106 
z
" style="fill: #4cff4c; stroke: #000000; stroke-linejoin: miter"/>
    </g>
    <!-- 4.0 -->
    <g transform="translate(1090.213966 301.164014) scale(0.0833 -0.0833)">
     <use xlink:href="#DejaVuSans-34"/>
     <use xlink:href="#DejaVuSans-2e" x="63.623047"/>
     <use xlink:href="#DejaVuSans-30" x="95.410156"/>
    </g>
   </g>
   <g id="text_15">
    <g id="patch_16">
     <path d="M 1631.307887 195.431757 
L 1681.865781 195.431757 
Q 1684.364781 195.431757 1684.364781 192.932757 
L 1684.364781 184.870879 
Q 1684.364781 182.371879 1681.865781 182.371879 
L 1631.307887 182.371879 
Q 1628.808887 182.371879 1628.808887 184.870879 
L 1628.808887 192.932757 
Q 1628.808887 195.431757 1631.307887 195.431757 
z
" style="fill: #ffffff; stroke: #000000; stroke-linejoin: miter"/>
    </g>
    <!-- x[0] &lt; -45.0 -->
    <g transform="translate(1631.307887 191.200378) scale(0.0833 -0.0833)">
     <use xlink:href="#DejaVuSans-78"/>
     <use xlink:href="#DejaVuSans-5b" x="59.179688"/>
     <use xlink:href="#DejaVuSans-30" x="98.193359"/>
     <use xlink:href="#DejaVuSans-5d" x="161.816406"/>
     <use xlink:href="#DejaVuSans-20" x="200.830078"/>
     <use xlink:href="#DejaVuSans-3c" x="232.617188"/>
     <use xlink:href="#DejaVuSans-20" x="316.40625"/>
     <use xlink:href="#DejaVuSans-2d" x="348.193359"/>
     <use xlink:href="#DejaVuSans-34" x="384.277344"/>
     <use xlink:href="#DejaVuSans-35" x="447.900391"/>
     <use xlink:href="#DejaVuSans-2e" x="511.523438"/>
     <use xlink:href="#DejaVuSans-30" x="543.310547"/>
    </g>
   </g>
   <g id="text_16">
    <g id="patch_17">
     <path d="M 1407.4082 250.413575 
L 1457.966094 250.413575 
Q 1460.465094 250.413575 1460.465094 247.914575 
L 1460.465094 239.852697 
Q 1460.465094 237.353697 1457.966094 237.353697 
L 1407.4082 237.353697 
Q 1404.9092 237.353697 1404.9092 239.852697 
L 1404.9092 247.914575 
Q 1404.9092 250.413575 1407.4082 250.413575 
z
" style="fill: #ffffff; stroke: #000000; stroke-linejoin: miter"/>
    </g>
    <!-- x[4] &lt; -70.5 -->
    <g transform="translate(1407.4082 246.182196) scale(0.0833 -0.0833)">
     <defs>
      <path id="DejaVuSans-37" d="M 525 4666 
L 3525 4666 
L 3525 4397 
L 1831 0 
L 1172 0 
L 2766 4134 
L 525 4134 
L 525 4666 
z
" transform="scale(0.015625)"/>
     </defs>
     <use xlink:href="#DejaVuSans-78"/>
     <use xlink:href="#DejaVuSans-5b" x="59.179688"/>
     <use xlink:href="#DejaVuSans-34" x="98.193359"/>
     <use xlink:href="#DejaVuSans-5d" x="161.816406"/>
     <use xlink:href="#DejaVuSans-20" x="200.830078"/>
     <use xlink:href="#DejaVuSans-3c" x="232.617188"/>
     <use xlink:href="#DejaVuSans-20" x="316.40625"/>
     <use xlink:href="#DejaVuSans-2d" x="348.193359"/>
     <use xlink:href="#DejaVuSans-37" x="384.277344"/>
     <use xlink:href="#DejaVuSans-30" x="447.900391"/>
     <use xlink:href="#DejaVuSans-2e" x="511.523438"/>
     <use xlink:href="#DejaVuSans-35" x="543.310547"/>
    </g>
   </g>
   <g id="text_17">
    <g id="patch_18">
     <path d="M 1295.458357 305.395394 
L 1346.016251 305.395394 
Q 1348.515251 305.395394 1348.515251 302.896394 
L 1348.515251 294.834515 
Q 1348.515251 292.335515 1346.016251 292.335515 
L 1295.458357 292.335515 
Q 1292.959357 292.335515 1292.959357 294.834515 
L 1292.959357 302.896394 
Q 1292.959357 305.395394 1295.458357 305.395394 
z
" style="fill: #ffffff; stroke: #000000; stroke-linejoin: miter"/>
    </g>
    <!-- x[2] &lt; -57.0 -->
    <g transform="translate(1295.458357 301.164014) scale(0.0833 -0.0833)">
     <use xlink:href="#DejaVuSans-78"/>
     <use xlink:href="#DejaVuSans-5b" x="59.179688"/>
     <use xlink:href="#DejaVuSans-32" x="98.193359"/>
     <use xlink:href="#DejaVuSans-5d" x="161.816406"/>
     <use xlink:href="#DejaVuSans-20" x="200.830078"/>
     <use xlink:href="#DejaVuSans-3c" x="232.617188"/>
     <use xlink:href="#DejaVuSans-20" x="316.40625"/>
     <use xlink:href="#DejaVuSans-2d" x="348.193359"/>
     <use xlink:href="#DejaVuSans-35" x="384.277344"/>
     <use xlink:href="#DejaVuSans-37" x="447.900391"/>
     <use xlink:href="#DejaVuSans-2e" x="511.523438"/>
     <use xlink:href="#DejaVuSans-30" x="543.310547"/>
    </g>
   </g>
   <g id="text_18">
    <g id="patch_19">
     <path d="M 1264.762382 362.969924 
C 1267.181738 362.969924 1269.502329 362.008704 1271.213071 360.297962 
C 1272.923814 358.587219 1273.885034 356.266628 1273.885034 353.847273 
C 1273.885034 351.427917 1272.923814 349.107327 1271.213071 347.396584 
C 1269.502329 345.685841 1267.181738 344.724621 1264.762382 344.724621 
C 1262.343027 344.724621 1260.022436 345.685841 1258.311694 347.396584 
C 1256.600951 349.107327 1255.639731 351.427917 1255.639731 353.847273 
C 1255.639731 356.266628 1256.600951 358.587219 1258.311694 360.297962 
C 1260.022436 362.008704 1262.343027 362.969924 1264.762382 362.969924 
z
" style="fill: #4cff4c; stroke: #000000; stroke-linejoin: miter"/>
    </g>
    <!-- 2.0 -->
    <g transform="translate(1258.138731 356.145832) scale(0.0833 -0.0833)">
     <use xlink:href="#DejaVuSans-32"/>
     <use xlink:href="#DejaVuSans-2e" x="63.623047"/>
     <use xlink:href="#DejaVuSans-30" x="95.410156"/>
    </g>
   </g>
   <g id="text_19">
    <g id="patch_20">
     <path d="M 1351.433279 360.377212 
L 1401.991173 360.377212 
Q 1404.490173 360.377212 1404.490173 357.878212 
L 1404.490173 349.816334 
Q 1404.490173 347.317334 1401.991173 347.317334 
L 1351.433279 347.317334 
Q 1348.934279 347.317334 1348.934279 349.816334 
L 1348.934279 357.878212 
Q 1348.934279 360.377212 1351.433279 360.377212 
z
" style="fill: #ffffff; stroke: #000000; stroke-linejoin: miter"/>
    </g>
    <!-- x[4] &lt; -78.5 -->
    <g transform="translate(1351.433279 356.145832) scale(0.0833 -0.0833)">
     <use xlink:href="#DejaVuSans-78"/>
     <use xlink:href="#DejaVuSans-5b" x="59.179688"/>
     <use xlink:href="#DejaVuSans-34" x="98.193359"/>
     <use xlink:href="#DejaVuSans-5d" x="161.816406"/>
     <use xlink:href="#DejaVuSans-20" x="200.830078"/>
     <use xlink:href="#DejaVuSans-3c" x="232.617188"/>
     <use xlink:href="#DejaVuSans-20" x="316.40625"/>
     <use xlink:href="#DejaVuSans-2d" x="348.193359"/>
     <use xlink:href="#DejaVuSans-37" x="384.277344"/>
     <use xlink:href="#DejaVuSans-38" x="447.900391"/>
     <use xlink:href="#DejaVuSans-2e" x="511.523438"/>
     <use xlink:href="#DejaVuSans-35" x="543.310547"/>
    </g>
   </g>
   <g id="text_20">
    <g id="patch_21">
     <path d="M 1348.724765 417.951742 
C 1351.14412 417.951742 1353.464711 416.990522 1355.175454 415.27978 
C 1356.886196 413.569037 1357.847416 411.248446 1357.847416 408.829091 
C 1357.847416 406.409735 1356.886196 404.089145 1355.175454 402.378402 
C 1353.464711 400.667659 1351.14412 399.706439 1348.724765 399.706439 
C 1346.305409 399.706439 1343.984819 400.667659 1342.274076 402.378402 
C 1340.563333 404.089145 1339.602113 406.409735 1339.602113 408.829091 
C 1339.602113 411.248446 1340.563333 413.569037 1342.274076 415.27978 
C 1343.984819 416.990522 1346.305409 417.951742 1348.724765 417.951742 
z
" style="fill: #4cff4c; stroke: #000000; stroke-linejoin: miter"/>
    </g>
    <!-- 2.0 -->
    <g transform="translate(1342.101113 411.12765) scale(0.0833 -0.0833)">
     <use xlink:href="#DejaVuSans-32"/>
     <use xlink:href="#DejaVuSans-2e" x="63.623047"/>
     <use xlink:href="#DejaVuSans-30" x="95.410156"/>
    </g>
   </g>
   <g id="text_21">
    <g id="patch_22">
     <path d="M 1379.42074 415.35903 
L 1429.978633 415.35903 
Q 1432.477633 415.35903 1432.477633 412.86003 
L 1432.477633 404.798152 
Q 1432.477633 402.299152 1429.978633 402.299152 
L 1379.42074 402.299152 
Q 1376.92174 402.299152 1376.92174 404.798152 
L 1376.92174 412.86003 
Q 1376.92174 415.35903 1379.42074 415.35903 
z
" style="fill: #ffffff; stroke: #000000; stroke-linejoin: miter"/>
    </g>
    <!-- x[0] &lt; -46.5 -->
    <g transform="translate(1379.42074 411.12765) scale(0.0833 -0.0833)">
     <use xlink:href="#DejaVuSans-78"/>
     <use xlink:href="#DejaVuSans-5b" x="59.179688"/>
     <use xlink:href="#DejaVuSans-30" x="98.193359"/>
     <use xlink:href="#DejaVuSans-5d" x="161.816406"/>
     <use xlink:href="#DejaVuSans-20" x="200.830078"/>
     <use xlink:href="#DejaVuSans-3c" x="232.617188"/>
     <use xlink:href="#DejaVuSans-20" x="316.40625"/>
     <use xlink:href="#DejaVuSans-2d" x="348.193359"/>
     <use xlink:href="#DejaVuSans-34" x="384.277344"/>
     <use xlink:href="#DejaVuSans-36" x="447.900391"/>
     <use xlink:href="#DejaVuSans-2e" x="511.523438"/>
     <use xlink:href="#DejaVuSans-35" x="543.310547"/>
    </g>
   </g>
   <g id="text_22">
    <g id="patch_23">
     <path d="M 1390.705956 472.933561 
C 1393.125312 472.933561 1395.445902 471.972341 1397.156645 470.261598 
C 1398.867388 468.550855 1399.828608 466.230265 1399.828608 463.810909 
C 1399.828608 461.391554 1398.867388 459.070963 1397.156645 457.36022 
C 1395.445902 455.649478 1393.125312 454.688258 1390.705956 454.688258 
C 1388.286601 454.688258 1385.96601 455.649478 1384.255267 457.36022 
C 1382.544525 459.070963 1381.583305 461.391554 1381.583305 463.810909 
C 1381.583305 466.230265 1382.544525 468.550855 1384.255267 470.261598 
C 1385.96601 471.972341 1388.286601 472.933561 1390.705956 472.933561 
z
" style="fill: #4cff4c; stroke: #000000; stroke-linejoin: miter"/>
    </g>
    <!-- 3.0 -->
    <g transform="translate(1384.082305 466.109468) scale(0.0833 -0.0833)">
     <use xlink:href="#DejaVuSans-33"/>
     <use xlink:href="#DejaVuSans-2e" x="63.623047"/>
     <use xlink:href="#DejaVuSans-30" x="95.410156"/>
    </g>
   </g>
   <g id="text_23">
    <g id="patch_24">
     <path d="M 1418.693417 472.933561 
C 1421.112772 472.933561 1423.433363 471.972341 1425.144106 470.261598 
C 1426.854848 468.550855 1427.816068 466.230265 1427.816068 463.810909 
C 1427.816068 461.391554 1426.854848 459.070963 1425.144106 457.36022 
C 1423.433363 455.649478 1421.112772 454.688258 1418.693417 454.688258 
C 1416.274061 454.688258 1413.953471 455.649478 1412.242728 457.36022 
C 1410.531985 459.070963 1409.570765 461.391554 1409.570765 463.810909 
C 1409.570765 466.230265 1410.531985 468.550855 1412.242728 470.261598 
C 1413.953471 471.972341 1416.274061 472.933561 1418.693417 472.933561 
z
" style="fill: #4cff4c; stroke: #000000; stroke-linejoin: miter"/>
    </g>
    <!-- 2.0 -->
    <g transform="translate(1412.069765 466.109468) scale(0.0833 -0.0833)">
     <use xlink:href="#DejaVuSans-32"/>
     <use xlink:href="#DejaVuSans-2e" x="63.623047"/>
     <use xlink:href="#DejaVuSans-30" x="95.410156"/>
    </g>
   </g>
   <g id="text_24">
    <g id="patch_25">
     <path d="M 1519.358044 305.395394 
L 1569.915937 305.395394 
Q 1572.414937 305.395394 1572.414937 302.896394 
L 1572.414937 294.834515 
Q 1572.414937 292.335515 1569.915937 292.335515 
L 1519.358044 292.335515 
Q 1516.859044 292.335515 1516.859044 294.834515 
L 1516.859044 302.896394 
Q 1516.859044 305.395394 1519.358044 305.395394 
z
" style="fill: #ffffff; stroke: #000000; stroke-linejoin: miter"/>
    </g>
    <!-- x[2] &lt; -53.5 -->
    <g transform="translate(1519.358044 301.164014) scale(0.0833 -0.0833)">
     <use xlink:href="#DejaVuSans-78"/>
     <use xlink:href="#DejaVuSans-5b" x="59.179688"/>
     <use xlink:href="#DejaVuSans-32" x="98.193359"/>
     <use xlink:href="#DejaVuSans-5d" x="161.816406"/>
     <use xlink:href="#DejaVuSans-20" x="200.830078"/>
     <use xlink:href="#DejaVuSans-3c" x="232.617188"/>
     <use xlink:href="#DejaVuSans-20" x="316.40625"/>
     <use xlink:href="#DejaVuSans-2d" x="348.193359"/>
     <use xlink:href="#DejaVuSans-35" x="384.277344"/>
     <use xlink:href="#DejaVuSans-33" x="447.900391"/>
     <use xlink:href="#DejaVuSans-2e" x="511.523438"/>
     <use xlink:href="#DejaVuSans-35" x="543.310547"/>
    </g>
   </g>
   <g id="text_25">
    <g id="patch_26">
     <path d="M 1463.383122 360.377212 
L 1513.941016 360.377212 
Q 1516.440016 360.377212 1516.440016 357.878212 
L 1516.440016 349.816334 
Q 1516.440016 347.317334 1513.941016 347.317334 
L 1463.383122 347.317334 
Q 1460.884122 347.317334 1460.884122 349.816334 
L 1460.884122 357.878212 
Q 1460.884122 360.377212 1463.383122 360.377212 
z
" style="fill: #ffffff; stroke: #000000; stroke-linejoin: miter"/>
    </g>
    <!-- x[5] &lt; -75.0 -->
    <g transform="translate(1463.383122 356.145832) scale(0.0833 -0.0833)">
     <use xlink:href="#DejaVuSans-78"/>
     <use xlink:href="#DejaVuSans-5b" x="59.179688"/>
     <use xlink:href="#DejaVuSans-35" x="98.193359"/>
     <use xlink:href="#DejaVuSans-5d" x="161.816406"/>
     <use xlink:href="#DejaVuSans-20" x="200.830078"/>
     <use xlink:href="#DejaVuSans-3c" x="232.617188"/>
     <use xlink:href="#DejaVuSans-20" x="316.40625"/>
     <use xlink:href="#DejaVuSans-2d" x="348.193359"/>
     <use xlink:href="#DejaVuSans-37" x="384.277344"/>
     <use xlink:href="#DejaVuSans-35" x="447.900391"/>
     <use xlink:href="#DejaVuSans-2e" x="511.523438"/>
     <use xlink:href="#DejaVuSans-30" x="543.310547"/>
    </g>
   </g>
   <g id="text_26">
    <g id="patch_27">
     <path d="M 1435.395661 415.35903 
L 1485.953555 415.35903 
Q 1488.452555 415.35903 1488.452555 412.86003 
L 1488.452555 404.798152 
Q 1488.452555 402.299152 1485.953555 402.299152 
L 1435.395661 402.299152 
Q 1432.896661 402.299152 1432.896661 404.798152 
L 1432.896661 412.86003 
Q 1432.896661 415.35903 1435.395661 415.35903 
z
" style="fill: #ffffff; stroke: #000000; stroke-linejoin: miter"/>
    </g>
    <!-- x[6] &lt; -76.0 -->
    <g transform="translate(1435.395661 411.12765) scale(0.0833 -0.0833)">
     <use xlink:href="#DejaVuSans-78"/>
     <use xlink:href="#DejaVuSans-5b" x="59.179688"/>
     <use xlink:href="#DejaVuSans-36" x="98.193359"/>
     <use xlink:href="#DejaVuSans-5d" x="161.816406"/>
     <use xlink:href="#DejaVuSans-20" x="200.830078"/>
     <use xlink:href="#DejaVuSans-3c" x="232.617188"/>
     <use xlink:href="#DejaVuSans-20" x="316.40625"/>
     <use xlink:href="#DejaVuSans-2d" x="348.193359"/>
     <use xlink:href="#DejaVuSans-37" x="384.277344"/>
     <use xlink:href="#DejaVuSans-36" x="447.900391"/>
     <use xlink:href="#DejaVuSans-2e" x="511.523438"/>
     <use xlink:href="#DejaVuSans-30" x="543.310547"/>
    </g>
   </g>
   <g id="text_27">
    <g id="patch_28">
     <path d="M 1421.401931 470.340848 
L 1471.959825 470.340848 
Q 1474.458825 470.340848 1474.458825 467.841848 
L 1474.458825 459.77997 
Q 1474.458825 457.28097 1471.959825 457.28097 
L 1421.401931 457.28097 
Q 1418.902931 457.28097 1418.902931 459.77997 
L 1418.902931 467.841848 
Q 1418.902931 470.340848 1421.401931 470.340848 
z
" style="fill: #ffffff; stroke: #000000; stroke-linejoin: miter"/>
    </g>
    <!-- x[1] &lt; -56.0 -->
    <g transform="translate(1421.401931 466.109468) scale(0.0833 -0.0833)">
     <use xlink:href="#DejaVuSans-78"/>
     <use xlink:href="#DejaVuSans-5b" x="59.179688"/>
     <use xlink:href="#DejaVuSans-31" x="98.193359"/>
     <use xlink:href="#DejaVuSans-5d" x="161.816406"/>
     <use xlink:href="#DejaVuSans-20" x="200.830078"/>
     <use xlink:href="#DejaVuSans-3c" x="232.617188"/>
     <use xlink:href="#DejaVuSans-20" x="316.40625"/>
     <use xlink:href="#DejaVuSans-2d" x="348.193359"/>
     <use xlink:href="#DejaVuSans-35" x="384.277344"/>
     <use xlink:href="#DejaVuSans-36" x="447.900391"/>
     <use xlink:href="#DejaVuSans-2e" x="511.523438"/>
     <use xlink:href="#DejaVuSans-30" x="543.310547"/>
    </g>
   </g>
   <g id="text_28">
    <g id="patch_29">
     <path d="M 1414.405066 525.322666 
L 1464.962959 525.322666 
Q 1467.461959 525.322666 1467.461959 522.823666 
L 1467.461959 514.761788 
Q 1467.461959 512.262788 1464.962959 512.262788 
L 1414.405066 512.262788 
Q 1411.906066 512.262788 1411.906066 514.761788 
L 1411.906066 522.823666 
Q 1411.906066 525.322666 1414.405066 525.322666 
z
" style="fill: #ffffff; stroke: #000000; stroke-linejoin: miter"/>
    </g>
    <!-- x[2] &lt; -55.0 -->
    <g transform="translate(1414.405066 521.091287) scale(0.0833 -0.0833)">
     <use xlink:href="#DejaVuSans-78"/>
     <use xlink:href="#DejaVuSans-5b" x="59.179688"/>
     <use xlink:href="#DejaVuSans-32" x="98.193359"/>
     <use xlink:href="#DejaVuSans-5d" x="161.816406"/>
     <use xlink:href="#DejaVuSans-20" x="200.830078"/>
     <use xlink:href="#DejaVuSans-3c" x="232.617188"/>
     <use xlink:href="#DejaVuSans-20" x="316.40625"/>
     <use xlink:href="#DejaVuSans-2d" x="348.193359"/>
     <use xlink:href="#DejaVuSans-35" x="384.277344"/>
     <use xlink:href="#DejaVuSans-35" x="447.900391"/>
     <use xlink:href="#DejaVuSans-2e" x="511.523438"/>
     <use xlink:href="#DejaVuSans-30" x="543.310547"/>
    </g>
   </g>
   <g id="text_29">
    <g id="patch_30">
     <path d="M 1436.18558 582.897197 
C 1438.604935 582.897197 1440.925526 581.935977 1442.636269 580.225234 
C 1444.347011 578.514492 1445.308231 576.193901 1445.308231 573.774545 
C 1445.308231 571.35519 1444.347011 569.034599 1442.636269 567.323857 
C 1440.925526 565.613114 1438.604935 564.651894 1436.18558 564.651894 
C 1433.766224 564.651894 1431.445634 565.613114 1429.734891 567.323857 
C 1428.024148 569.034599 1427.062928 571.35519 1427.062928 573.774545 
C 1427.062928 576.193901 1428.024148 578.514492 1429.734891 580.225234 
C 1431.445634 581.935977 1433.766224 582.897197 1436.18558 582.897197 
z
" style="fill: #4cff4c; stroke: #000000; stroke-linejoin: miter"/>
    </g>
    <!-- 3.0 -->
    <g transform="translate(1429.561928 576.073105) scale(0.0833 -0.0833)">
     <use xlink:href="#DejaVuSans-33"/>
     <use xlink:href="#DejaVuSans-2e" x="63.623047"/>
     <use xlink:href="#DejaVuSans-30" x="95.410156"/>
    </g>
   </g>
   <g id="text_30">
    <g id="patch_31">
     <path d="M 1417.903498 580.304485 
L 1468.461392 580.304485 
Q 1470.960392 580.304485 1470.960392 577.805485 
L 1470.960392 569.743606 
Q 1470.960392 567.244606 1468.461392 567.244606 
L 1417.903498 567.244606 
Q 1415.404498 567.244606 1415.404498 569.743606 
L 1415.404498 577.805485 
Q 1415.404498 580.304485 1417.903498 580.304485 
z
" style="fill: #ffffff; stroke: #000000; stroke-linejoin: miter"/>
    </g>
    <!-- x[5] &lt; -78.5 -->
    <g transform="translate(1417.903498 576.073105) scale(0.0833 -0.0833)">
     <use xlink:href="#DejaVuSans-78"/>
     <use xlink:href="#DejaVuSans-5b" x="59.179688"/>
     <use xlink:href="#DejaVuSans-35" x="98.193359"/>
     <use xlink:href="#DejaVuSans-5d" x="161.816406"/>
     <use xlink:href="#DejaVuSans-20" x="200.830078"/>
     <use xlink:href="#DejaVuSans-3c" x="232.617188"/>
     <use xlink:href="#DejaVuSans-20" x="316.40625"/>
     <use xlink:href="#DejaVuSans-2d" x="348.193359"/>
     <use xlink:href="#DejaVuSans-37" x="384.277344"/>
     <use xlink:href="#DejaVuSans-38" x="447.900391"/>
     <use xlink:href="#DejaVuSans-2e" x="511.523438"/>
     <use xlink:href="#DejaVuSans-35" x="543.310547"/>
    </g>
   </g>
   <g id="text_31">
    <g id="patch_32">
     <path d="M 1416.154282 635.286303 
L 1466.712176 635.286303 
Q 1469.211176 635.286303 1469.211176 632.787303 
L 1469.211176 624.725425 
Q 1469.211176 622.226425 1466.712176 622.226425 
L 1416.154282 622.226425 
Q 1413.655282 622.226425 1413.655282 624.725425 
L 1413.655282 632.787303 
Q 1413.655282 635.286303 1416.154282 635.286303 
z
" style="fill: #ffffff; stroke: #000000; stroke-linejoin: miter"/>
    </g>
    <!-- x[1] &lt; -58.0 -->
    <g transform="translate(1416.154282 631.054923) scale(0.0833 -0.0833)">
     <use xlink:href="#DejaVuSans-78"/>
     <use xlink:href="#DejaVuSans-5b" x="59.179688"/>
     <use xlink:href="#DejaVuSans-31" x="98.193359"/>
     <use xlink:href="#DejaVuSans-5d" x="161.816406"/>
     <use xlink:href="#DejaVuSans-20" x="200.830078"/>
     <use xlink:href="#DejaVuSans-3c" x="232.617188"/>
     <use xlink:href="#DejaVuSans-20" x="316.40625"/>
     <use xlink:href="#DejaVuSans-2d" x="348.193359"/>
     <use xlink:href="#DejaVuSans-35" x="384.277344"/>
     <use xlink:href="#DejaVuSans-38" x="447.900391"/>
     <use xlink:href="#DejaVuSans-2e" x="511.523438"/>
     <use xlink:href="#DejaVuSans-30" x="543.310547"/>
    </g>
   </g>
   <g id="text_32">
    <g id="patch_33">
     <path d="M 1440.558621 692.860833 
C 1442.977976 692.860833 1445.298567 691.899613 1447.009309 690.188871 
C 1448.720052 688.478128 1449.681272 686.157537 1449.681272 683.738182 
C 1449.681272 681.318826 1448.720052 678.998236 1447.009309 677.287493 
C 1445.298567 675.57675 1442.977976 674.61553 1440.558621 674.61553 
C 1438.139265 674.61553 1435.818675 675.57675 1434.107932 677.287493 
C 1432.397189 678.998236 1431.435969 681.318826 1431.435969 683.738182 
C 1431.435969 686.157537 1432.397189 688.478128 1434.107932 690.188871 
C 1435.818675 691.899613 1438.139265 692.860833 1440.558621 692.860833 
z
" style="fill: #4cff4c; stroke: #000000; stroke-linejoin: miter"/>
    </g>
    <!-- 3.0 -->
    <g transform="translate(1433.934969 686.036741) scale(0.0833 -0.0833)">
     <use xlink:href="#DejaVuSans-33"/>
     <use xlink:href="#DejaVuSans-2e" x="63.623047"/>
     <use xlink:href="#DejaVuSans-30" x="95.410156"/>
    </g>
   </g>
   <g id="text_33">
    <g id="patch_34">
     <path d="M 1417.02889 690.268121 
L 1467.586784 690.268121 
Q 1470.085784 690.268121 1470.085784 687.769121 
L 1470.085784 679.707243 
Q 1470.085784 677.208243 1467.586784 677.208243 
L 1417.02889 677.208243 
Q 1414.52989 677.208243 1414.52989 679.707243 
L 1414.52989 687.769121 
Q 1414.52989 690.268121 1417.02889 690.268121 
z
" style="fill: #ffffff; stroke: #000000; stroke-linejoin: miter"/>
    </g>
    <!-- x[4] &lt; -64.5 -->
    <g transform="translate(1417.02889 686.036741) scale(0.0833 -0.0833)">
     <use xlink:href="#DejaVuSans-78"/>
     <use xlink:href="#DejaVuSans-5b" x="59.179688"/>
     <use xlink:href="#DejaVuSans-34" x="98.193359"/>
     <use xlink:href="#DejaVuSans-5d" x="161.816406"/>
     <use xlink:href="#DejaVuSans-20" x="200.830078"/>
     <use xlink:href="#DejaVuSans-3c" x="232.617188"/>
     <use xlink:href="#DejaVuSans-20" x="316.40625"/>
     <use xlink:href="#DejaVuSans-2d" x="348.193359"/>
     <use xlink:href="#DejaVuSans-36" x="384.277344"/>
     <use xlink:href="#DejaVuSans-34" x="447.900391"/>
     <use xlink:href="#DejaVuSans-2e" x="511.523438"/>
     <use xlink:href="#DejaVuSans-35" x="543.310547"/>
    </g>
   </g>
   <g id="text_34">
    <g id="patch_35">
     <path d="M 1441.870533 747.842652 
C 1444.289888 747.842652 1446.610479 746.881431 1448.321222 745.170689 
C 1450.031964 743.459946 1450.993184 741.139355 1450.993184 738.72 
C 1450.993184 736.300645 1450.031964 733.980054 1448.321222 732.269311 
C 1446.610479 730.558569 1444.289888 729.597348 1441.870533 729.597348 
C 1439.451177 729.597348 1437.130587 730.558569 1435.419844 732.269311 
C 1433.709101 733.980054 1432.747881 736.300645 1432.747881 738.72 
C 1432.747881 741.139355 1433.709101 743.459946 1435.419844 745.170689 
C 1437.130587 746.881431 1439.451177 747.842652 1441.870533 747.842652 
z
" style="fill: #4cff4c; stroke: #000000; stroke-linejoin: miter"/>
    </g>
    <!-- 3.0 -->
    <g transform="translate(1435.246881 741.018559) scale(0.0833 -0.0833)">
     <use xlink:href="#DejaVuSans-33"/>
     <use xlink:href="#DejaVuSans-2e" x="63.623047"/>
     <use xlink:href="#DejaVuSans-30" x="95.410156"/>
    </g>
   </g>
   <g id="text_35">
    <g id="patch_36">
     <path d="M 1442.745141 747.842652 
C 1445.164497 747.842652 1447.485087 746.881431 1449.19583 745.170689 
C 1450.906573 743.459946 1451.867793 741.139355 1451.867793 738.72 
C 1451.867793 736.300645 1450.906573 733.980054 1449.19583 732.269311 
C 1447.485087 730.558569 1445.164497 729.597348 1442.745141 729.597348 
C 1440.325786 729.597348 1438.005195 730.558569 1436.294452 732.269311 
C 1434.58371 733.980054 1433.62249 736.300645 1433.62249 738.72 
C 1433.62249 741.139355 1434.58371 743.459946 1436.294452 745.170689 
C 1438.005195 746.881431 1440.325786 747.842652 1442.745141 747.842652 
z
" style="fill: #4cff4c; stroke: #000000; stroke-linejoin: miter"/>
    </g>
    <!-- 2.0 -->
    <g transform="translate(1436.12149 741.018559) scale(0.0833 -0.0833)">
     <use xlink:href="#DejaVuSans-32"/>
     <use xlink:href="#DejaVuSans-2e" x="63.623047"/>
     <use xlink:href="#DejaVuSans-30" x="95.410156"/>
    </g>
   </g>
   <g id="text_36">
    <g id="patch_37">
     <path d="M 1444.931661 637.879015 
C 1447.351017 637.879015 1449.671608 636.917795 1451.38235 635.207052 
C 1453.093093 633.49631 1454.054313 631.175719 1454.054313 628.756364 
C 1454.054313 626.337008 1453.093093 624.016418 1451.38235 622.305675 
C 1449.671608 620.594932 1447.351017 619.633712 1444.931661 619.633712 
C 1442.512306 619.633712 1440.191715 620.594932 1438.480973 622.305675 
C 1436.77023 624.016418 1435.80901 626.337008 1435.80901 628.756364 
C 1435.80901 631.175719 1436.77023 633.49631 1438.480973 635.207052 
C 1440.191715 636.917795 1442.512306 637.879015 1444.931661 637.879015 
z
" style="fill: #4cff4c; stroke: #000000; stroke-linejoin: miter"/>
    </g>
    <!-- 2.0 -->
    <g transform="translate(1438.30801 631.054923) scale(0.0833 -0.0833)">
     <use xlink:href="#DejaVuSans-32"/>
     <use xlink:href="#DejaVuSans-2e" x="63.623047"/>
     <use xlink:href="#DejaVuSans-30" x="95.410156"/>
    </g>
   </g>
   <g id="text_37">
    <g id="patch_38">
     <path d="M 1453.677743 527.915379 
C 1456.097098 527.915379 1458.417689 526.954159 1460.128432 525.243416 
C 1461.839174 523.532673 1462.800395 521.212083 1462.800395 518.792727 
C 1462.800395 516.373372 1461.839174 514.052781 1460.128432 512.342038 
C 1458.417689 510.631296 1456.097098 509.670076 1453.677743 509.670076 
C 1451.258387 509.670076 1448.937797 510.631296 1447.227054 512.342038 
C 1445.516312 514.052781 1444.555091 516.373372 1444.555091 518.792727 
C 1444.555091 521.212083 1445.516312 523.532673 1447.227054 525.243416 
C 1448.937797 526.954159 1451.258387 527.915379 1453.677743 527.915379 
z
" style="fill: #4cff4c; stroke: #000000; stroke-linejoin: miter"/>
    </g>
    <!-- 3.0 -->
    <g transform="translate(1447.054091 521.091287) scale(0.0833 -0.0833)">
     <use xlink:href="#DejaVuSans-33"/>
     <use xlink:href="#DejaVuSans-2e" x="63.623047"/>
     <use xlink:href="#DejaVuSans-30" x="95.410156"/>
    </g>
   </g>
   <g id="text_38">
    <g id="patch_39">
     <path d="M 1449.389392 470.340848 
L 1499.947285 470.340848 
Q 1502.446285 470.340848 1502.446285 467.841848 
L 1502.446285 459.77997 
Q 1502.446285 457.28097 1499.947285 457.28097 
L 1449.389392 457.28097 
Q 1446.890392 457.28097 1446.890392 459.77997 
L 1446.890392 467.841848 
Q 1446.890392 470.340848 1449.389392 470.340848 
z
" style="fill: #ffffff; stroke: #000000; stroke-linejoin: miter"/>
    </g>
    <!-- x[1] &lt; -53.5 -->
    <g transform="translate(1449.389392 466.109468) scale(0.0833 -0.0833)">
     <use xlink:href="#DejaVuSans-78"/>
     <use xlink:href="#DejaVuSans-5b" x="59.179688"/>
     <use xlink:href="#DejaVuSans-31" x="98.193359"/>
     <use xlink:href="#DejaVuSans-5d" x="161.816406"/>
     <use xlink:href="#DejaVuSans-20" x="200.830078"/>
     <use xlink:href="#DejaVuSans-3c" x="232.617188"/>
     <use xlink:href="#DejaVuSans-20" x="316.40625"/>
     <use xlink:href="#DejaVuSans-2d" x="348.193359"/>
     <use xlink:href="#DejaVuSans-35" x="384.277344"/>
     <use xlink:href="#DejaVuSans-33" x="447.900391"/>
     <use xlink:href="#DejaVuSans-2e" x="511.523438"/>
     <use xlink:href="#DejaVuSans-35" x="543.310547"/>
    </g>
   </g>
   <g id="text_39">
    <g id="patch_40">
     <path d="M 1442.392526 525.322666 
L 1492.95042 525.322666 
Q 1495.44942 525.322666 1495.44942 522.823666 
L 1495.44942 514.761788 
Q 1495.44942 512.262788 1492.95042 512.262788 
L 1442.392526 512.262788 
Q 1439.893526 512.262788 1439.893526 514.761788 
L 1439.893526 522.823666 
Q 1439.893526 525.322666 1442.392526 525.322666 
z
" style="fill: #ffffff; stroke: #000000; stroke-linejoin: miter"/>
    </g>
    <!-- x[4] &lt; -63.5 -->
    <g transform="translate(1442.392526 521.091287) scale(0.0833 -0.0833)">
     <use xlink:href="#DejaVuSans-78"/>
     <use xlink:href="#DejaVuSans-5b" x="59.179688"/>
     <use xlink:href="#DejaVuSans-34" x="98.193359"/>
     <use xlink:href="#DejaVuSans-5d" x="161.816406"/>
     <use xlink:href="#DejaVuSans-20" x="200.830078"/>
     <use xlink:href="#DejaVuSans-3c" x="232.617188"/>
     <use xlink:href="#DejaVuSans-20" x="316.40625"/>
     <use xlink:href="#DejaVuSans-2d" x="348.193359"/>
     <use xlink:href="#DejaVuSans-36" x="384.277344"/>
     <use xlink:href="#DejaVuSans-33" x="447.900391"/>
     <use xlink:href="#DejaVuSans-2e" x="511.523438"/>
     <use xlink:href="#DejaVuSans-35" x="543.310547"/>
    </g>
   </g>
   <g id="text_40">
    <g id="patch_41">
     <path d="M 1464.173041 582.897197 
C 1466.592396 582.897197 1468.912987 581.935977 1470.62373 580.225234 
C 1472.334472 578.514492 1473.295692 576.193901 1473.295692 573.774545 
C 1473.295692 571.35519 1472.334472 569.034599 1470.62373 567.323857 
C 1468.912987 565.613114 1466.592396 564.651894 1464.173041 564.651894 
C 1461.753685 564.651894 1459.433095 565.613114 1457.722352 567.323857 
C 1456.011609 569.034599 1455.050389 571.35519 1455.050389 573.774545 
C 1455.050389 576.193901 1456.011609 578.514492 1457.722352 580.225234 
C 1459.433095 581.935977 1461.753685 582.897197 1464.173041 582.897197 
z
" style="fill: #4cff4c; stroke: #000000; stroke-linejoin: miter"/>
    </g>
    <!-- 2.0 -->
    <g transform="translate(1457.549389 576.073105) scale(0.0833 -0.0833)">
     <use xlink:href="#DejaVuSans-32"/>
     <use xlink:href="#DejaVuSans-2e" x="63.623047"/>
     <use xlink:href="#DejaVuSans-30" x="95.410156"/>
    </g>
   </g>
   <g id="text_41">
    <g id="patch_42">
     <path d="M 1445.890959 580.304485 
L 1496.448853 580.304485 
Q 1498.947853 580.304485 1498.947853 577.805485 
L 1498.947853 569.743606 
Q 1498.947853 567.244606 1496.448853 567.244606 
L 1445.890959 567.244606 
Q 1443.391959 567.244606 1443.391959 569.743606 
L 1443.391959 577.805485 
Q 1443.391959 580.304485 1445.890959 580.304485 
z
" style="fill: #ffffff; stroke: #000000; stroke-linejoin: miter"/>
    </g>
    <!-- x[0] &lt; -46.0 -->
    <g transform="translate(1445.890959 576.073105) scale(0.0833 -0.0833)">
     <use xlink:href="#DejaVuSans-78"/>
     <use xlink:href="#DejaVuSans-5b" x="59.179688"/>
     <use xlink:href="#DejaVuSans-30" x="98.193359"/>
     <use xlink:href="#DejaVuSans-5d" x="161.816406"/>
     <use xlink:href="#DejaVuSans-20" x="200.830078"/>
     <use xlink:href="#DejaVuSans-3c" x="232.617188"/>
     <use xlink:href="#DejaVuSans-20" x="316.40625"/>
     <use xlink:href="#DejaVuSans-2d" x="348.193359"/>
     <use xlink:href="#DejaVuSans-34" x="384.277344"/>
     <use xlink:href="#DejaVuSans-36" x="447.900391"/>
     <use xlink:href="#DejaVuSans-2e" x="511.523438"/>
     <use xlink:href="#DejaVuSans-30" x="543.310547"/>
    </g>
   </g>
   <g id="text_42">
    <g id="patch_43">
     <path d="M 1469.42069 637.879015 
C 1471.840045 637.879015 1474.160636 636.917795 1475.871378 635.207052 
C 1477.582121 633.49631 1478.543341 631.175719 1478.543341 628.756364 
C 1478.543341 626.337008 1477.582121 624.016418 1475.871378 622.305675 
C 1474.160636 620.594932 1471.840045 619.633712 1469.42069 619.633712 
C 1467.001334 619.633712 1464.680744 620.594932 1462.970001 622.305675 
C 1461.259258 624.016418 1460.298038 626.337008 1460.298038 628.756364 
C 1460.298038 631.175719 1461.259258 633.49631 1462.970001 635.207052 
C 1464.680744 636.917795 1467.001334 637.879015 1469.42069 637.879015 
z
" style="fill: #4cff4c; stroke: #000000; stroke-linejoin: miter"/>
    </g>
    <!-- 3.0 -->
    <g transform="translate(1462.797038 631.054923) scale(0.0833 -0.0833)">
     <use xlink:href="#DejaVuSans-33"/>
     <use xlink:href="#DejaVuSans-2e" x="63.623047"/>
     <use xlink:href="#DejaVuSans-30" x="95.410156"/>
    </g>
   </g>
   <g id="text_43">
    <g id="patch_44">
     <path d="M 1472.919122 637.879015 
C 1475.338478 637.879015 1477.659068 636.917795 1479.369811 635.207052 
C 1481.080554 633.49631 1482.041774 631.175719 1482.041774 628.756364 
C 1482.041774 626.337008 1481.080554 624.016418 1479.369811 622.305675 
C 1477.659068 620.594932 1475.338478 619.633712 1472.919122 619.633712 
C 1470.499767 619.633712 1468.179176 620.594932 1466.468433 622.305675 
C 1464.757691 624.016418 1463.796471 626.337008 1463.796471 628.756364 
C 1463.796471 631.175719 1464.757691 633.49631 1466.468433 635.207052 
C 1468.179176 636.917795 1470.499767 637.879015 1472.919122 637.879015 
z
" style="fill: #4cff4c; stroke: #000000; stroke-linejoin: miter"/>
    </g>
    <!-- 2.0 -->
    <g transform="translate(1466.295471 631.054923) scale(0.0833 -0.0833)">
     <use xlink:href="#DejaVuSans-32"/>
     <use xlink:href="#DejaVuSans-2e" x="63.623047"/>
     <use xlink:href="#DejaVuSans-30" x="95.410156"/>
    </g>
   </g>
   <g id="text_44">
    <g id="patch_45">
     <path d="M 1481.665204 527.915379 
C 1484.084559 527.915379 1486.40515 526.954159 1488.115893 525.243416 
C 1489.826635 523.532673 1490.787855 521.212083 1490.787855 518.792727 
C 1490.787855 516.373372 1489.826635 514.052781 1488.115893 512.342038 
C 1486.40515 510.631296 1484.084559 509.670076 1481.665204 509.670076 
C 1479.245848 509.670076 1476.925258 510.631296 1475.214515 512.342038 
C 1473.503772 514.052781 1472.542552 516.373372 1472.542552 518.792727 
C 1472.542552 521.212083 1473.503772 523.532673 1475.214515 525.243416 
C 1476.925258 526.954159 1479.245848 527.915379 1481.665204 527.915379 
z
" style="fill: #4cff4c; stroke: #000000; stroke-linejoin: miter"/>
    </g>
    <!-- 3.0 -->
    <g transform="translate(1475.041552 521.091287) scale(0.0833 -0.0833)">
     <use xlink:href="#DejaVuSans-33"/>
     <use xlink:href="#DejaVuSans-2e" x="63.623047"/>
     <use xlink:href="#DejaVuSans-30" x="95.410156"/>
    </g>
   </g>
   <g id="text_45">
    <g id="patch_46">
     <path d="M 1516.64953 417.951742 
C 1519.068885 417.951742 1521.389476 416.990522 1523.100219 415.27978 
C 1524.810961 413.569037 1525.772181 411.248446 1525.772181 408.829091 
C 1525.772181 406.409735 1524.810961 404.089145 1523.100219 402.378402 
C 1521.389476 400.667659 1519.068885 399.706439 1516.64953 399.706439 
C 1514.230174 399.706439 1511.909584 400.667659 1510.198841 402.378402 
C 1508.488098 404.089145 1507.526878 406.409735 1507.526878 408.829091 
C 1507.526878 411.248446 1508.488098 413.569037 1510.198841 415.27978 
C 1511.909584 416.990522 1514.230174 417.951742 1516.64953 417.951742 
z
" style="fill: #4cff4c; stroke: #000000; stroke-linejoin: miter"/>
    </g>
    <!-- 2.0 -->
    <g transform="translate(1510.025878 411.12765) scale(0.0833 -0.0833)">
     <use xlink:href="#DejaVuSans-32"/>
     <use xlink:href="#DejaVuSans-2e" x="63.623047"/>
     <use xlink:href="#DejaVuSans-30" x="95.410156"/>
    </g>
   </g>
   <g id="text_46">
    <g id="patch_47">
     <path d="M 1575.332965 360.377212 
L 1625.890859 360.377212 
Q 1628.389859 360.377212 1628.389859 357.878212 
L 1628.389859 349.816334 
Q 1628.389859 347.317334 1625.890859 347.317334 
L 1575.332965 347.317334 
Q 1572.833965 347.317334 1572.833965 349.816334 
L 1572.833965 357.878212 
Q 1572.833965 360.377212 1575.332965 360.377212 
z
" style="fill: #ffffff; stroke: #000000; stroke-linejoin: miter"/>
    </g>
    <!-- x[4] &lt; -54.5 -->
    <g transform="translate(1575.332965 356.145832) scale(0.0833 -0.0833)">
     <use xlink:href="#DejaVuSans-78"/>
     <use xlink:href="#DejaVuSans-5b" x="59.179688"/>
     <use xlink:href="#DejaVuSans-34" x="98.193359"/>
     <use xlink:href="#DejaVuSans-5d" x="161.816406"/>
     <use xlink:href="#DejaVuSans-20" x="200.830078"/>
     <use xlink:href="#DejaVuSans-3c" x="232.617188"/>
     <use xlink:href="#DejaVuSans-20" x="316.40625"/>
     <use xlink:href="#DejaVuSans-2d" x="348.193359"/>
     <use xlink:href="#DejaVuSans-35" x="384.277344"/>
     <use xlink:href="#DejaVuSans-34" x="447.900391"/>
     <use xlink:href="#DejaVuSans-2e" x="511.523438"/>
     <use xlink:href="#DejaVuSans-35" x="543.310547"/>
    </g>
   </g>
   <g id="text_47">
    <g id="patch_48">
     <path d="M 1572.624451 417.951742 
C 1575.043807 417.951742 1577.364398 416.990522 1579.07514 415.27978 
C 1580.785883 413.569037 1581.747103 411.248446 1581.747103 408.829091 
C 1581.747103 406.409735 1580.785883 404.089145 1579.07514 402.378402 
C 1577.364398 400.667659 1575.043807 399.706439 1572.624451 399.706439 
C 1570.205096 399.706439 1567.884505 400.667659 1566.173763 402.378402 
C 1564.46302 404.089145 1563.5018 406.409735 1563.5018 408.829091 
C 1563.5018 411.248446 1564.46302 413.569037 1566.173763 415.27978 
C 1567.884505 416.990522 1570.205096 417.951742 1572.624451 417.951742 
z
" style="fill: #4cff4c; stroke: #000000; stroke-linejoin: miter"/>
    </g>
    <!-- 3.0 -->
    <g transform="translate(1566.0008 411.12765) scale(0.0833 -0.0833)">
     <use xlink:href="#DejaVuSans-33"/>
     <use xlink:href="#DejaVuSans-2e" x="63.623047"/>
     <use xlink:href="#DejaVuSans-30" x="95.410156"/>
    </g>
   </g>
   <g id="text_48">
    <g id="patch_49">
     <path d="M 1628.599373 417.951742 
C 1631.018729 417.951742 1633.339319 416.990522 1635.050062 415.27978 
C 1636.760804 413.569037 1637.722025 411.248446 1637.722025 408.829091 
C 1637.722025 406.409735 1636.760804 404.089145 1635.050062 402.378402 
C 1633.339319 400.667659 1631.018729 399.706439 1628.599373 399.706439 
C 1626.180018 399.706439 1623.859427 400.667659 1622.148684 402.378402 
C 1620.437942 404.089145 1619.476721 406.409735 1619.476721 408.829091 
C 1619.476721 411.248446 1620.437942 413.569037 1622.148684 415.27978 
C 1623.859427 416.990522 1626.180018 417.951742 1628.599373 417.951742 
z
" style="fill: #4cff4c; stroke: #000000; stroke-linejoin: miter"/>
    </g>
    <!-- 4.0 -->
    <g transform="translate(1621.975721 411.12765) scale(0.0833 -0.0833)">
     <use xlink:href="#DejaVuSans-34"/>
     <use xlink:href="#DejaVuSans-2e" x="63.623047"/>
     <use xlink:href="#DejaVuSans-30" x="95.410156"/>
    </g>
   </g>
   <g id="text_49">
    <g id="patch_50">
     <path d="M 1855.207574 250.413575 
L 1905.765467 250.413575 
Q 1908.264467 250.413575 1908.264467 247.914575 
L 1908.264467 239.852697 
Q 1908.264467 237.353697 1905.765467 237.353697 
L 1855.207574 237.353697 
Q 1852.708574 237.353697 1852.708574 239.852697 
L 1852.708574 247.914575 
Q 1852.708574 250.413575 1855.207574 250.413575 
z
" style="fill: #ffffff; stroke: #000000; stroke-linejoin: miter"/>
    </g>
    <!-- x[3] &lt; -49.0 -->
    <g transform="translate(1855.207574 246.182196) scale(0.0833 -0.0833)">
     <use xlink:href="#DejaVuSans-78"/>
     <use xlink:href="#DejaVuSans-5b" x="59.179688"/>
     <use xlink:href="#DejaVuSans-33" x="98.193359"/>
     <use xlink:href="#DejaVuSans-5d" x="161.816406"/>
     <use xlink:href="#DejaVuSans-20" x="200.830078"/>
     <use xlink:href="#DejaVuSans-3c" x="232.617188"/>
     <use xlink:href="#DejaVuSans-20" x="316.40625"/>
     <use xlink:href="#DejaVuSans-2d" x="348.193359"/>
     <use xlink:href="#DejaVuSans-34" x="384.277344"/>
     <use xlink:href="#DejaVuSans-39" x="447.900391"/>
     <use xlink:href="#DejaVuSans-2e" x="511.523438"/>
     <use xlink:href="#DejaVuSans-30" x="543.310547"/>
    </g>
   </g>
   <g id="text_50">
    <g id="patch_51">
     <path d="M 1743.25773 305.395394 
L 1793.815624 305.395394 
Q 1796.314624 305.395394 1796.314624 302.896394 
L 1796.314624 294.834515 
Q 1796.314624 292.335515 1793.815624 292.335515 
L 1743.25773 292.335515 
Q 1740.75873 292.335515 1740.75873 294.834515 
L 1740.75873 302.896394 
Q 1740.75873 305.395394 1743.25773 305.395394 
z
" style="fill: #ffffff; stroke: #000000; stroke-linejoin: miter"/>
    </g>
    <!-- x[0] &lt; -41.5 -->
    <g transform="translate(1743.25773 301.164014) scale(0.0833 -0.0833)">
     <use xlink:href="#DejaVuSans-78"/>
     <use xlink:href="#DejaVuSans-5b" x="59.179688"/>
     <use xlink:href="#DejaVuSans-30" x="98.193359"/>
     <use xlink:href="#DejaVuSans-5d" x="161.816406"/>
     <use xlink:href="#DejaVuSans-20" x="200.830078"/>
     <use xlink:href="#DejaVuSans-3c" x="232.617188"/>
     <use xlink:href="#DejaVuSans-20" x="316.40625"/>
     <use xlink:href="#DejaVuSans-2d" x="348.193359"/>
     <use xlink:href="#DejaVuSans-34" x="384.277344"/>
     <use xlink:href="#DejaVuSans-31" x="447.900391"/>
     <use xlink:href="#DejaVuSans-2e" x="511.523438"/>
     <use xlink:href="#DejaVuSans-35" x="543.310547"/>
    </g>
   </g>
   <g id="text_51">
    <g id="patch_52">
     <path d="M 1712.561755 362.969924 
C 1714.981111 362.969924 1717.301702 362.008704 1719.012444 360.297962 
C 1720.723187 358.587219 1721.684407 356.266628 1721.684407 353.847273 
C 1721.684407 351.427917 1720.723187 349.107327 1719.012444 347.396584 
C 1717.301702 345.685841 1714.981111 344.724621 1712.561755 344.724621 
C 1710.1424 344.724621 1707.821809 345.685841 1706.111067 347.396584 
C 1704.400324 349.107327 1703.439104 351.427917 1703.439104 353.847273 
C 1703.439104 356.266628 1704.400324 358.587219 1706.111067 360.297962 
C 1707.821809 362.008704 1710.1424 362.969924 1712.561755 362.969924 
z
" style="fill: #4cff4c; stroke: #000000; stroke-linejoin: miter"/>
    </g>
    <!-- 3.0 -->
    <g transform="translate(1705.938104 356.145832) scale(0.0833 -0.0833)">
     <use xlink:href="#DejaVuSans-33"/>
     <use xlink:href="#DejaVuSans-2e" x="63.623047"/>
     <use xlink:href="#DejaVuSans-30" x="95.410156"/>
    </g>
   </g>
   <g id="text_52">
    <g id="patch_53">
     <path d="M 1824.511599 362.969924 
C 1826.930954 362.969924 1829.251545 362.008704 1830.962288 360.297962 
C 1832.67303 358.587219 1833.63425 356.266628 1833.63425 353.847273 
C 1833.63425 351.427917 1832.67303 349.107327 1830.962288 347.396584 
C 1829.251545 345.685841 1826.930954 344.724621 1824.511599 344.724621 
C 1822.092243 344.724621 1819.771653 345.685841 1818.06091 347.396584 
C 1816.350167 349.107327 1815.388947 351.427917 1815.388947 353.847273 
C 1815.388947 356.266628 1816.350167 358.587219 1818.06091 360.297962 
C 1819.771653 362.008704 1822.092243 362.969924 1824.511599 362.969924 
z
" style="fill: #4cff4c; stroke: #000000; stroke-linejoin: miter"/>
    </g>
    <!-- 2.0 -->
    <g transform="translate(1817.887947 356.145832) scale(0.0833 -0.0833)">
     <use xlink:href="#DejaVuSans-32"/>
     <use xlink:href="#DejaVuSans-2e" x="63.623047"/>
     <use xlink:href="#DejaVuSans-30" x="95.410156"/>
    </g>
   </g>
   <g id="text_53">
    <g id="patch_54">
     <path d="M 1992.436364 307.988106 
C 1994.855719 307.988106 1997.17631 307.026886 1998.887052 305.316143 
C 2000.597795 303.605401 2001.559015 301.28481 2001.559015 298.865455 
C 2001.559015 296.446099 2000.597795 294.125508 1998.887052 292.414766 
C 1997.17631 290.704023 1994.855719 289.742803 1992.436364 289.742803 
C 1990.017008 289.742803 1987.696418 290.704023 1985.985675 292.414766 
C 1984.274932 294.125508 1983.313712 296.446099 1983.313712 298.865455 
C 1983.313712 301.28481 1984.274932 303.605401 1985.985675 305.316143 
C 1987.696418 307.026886 1990.017008 307.988106 1992.436364 307.988106 
z
" style="fill: #4cff4c; stroke: #000000; stroke-linejoin: miter"/>
    </g>
    <!-- 2.0 -->
    <g transform="translate(1985.812712 301.164014) scale(0.0833 -0.0833)">
     <use xlink:href="#DejaVuSans-32"/>
     <use xlink:href="#DejaVuSans-2e" x="63.623047"/>
     <use xlink:href="#DejaVuSans-30" x="95.410156"/>
    </g>
   </g>
  </g>
 </g>
 <defs>
  <clipPath id="p192c0ac47c">
   <rect x="288" y="103.68" width="1785.6" height="665.28"/>
  </clipPath>
 </defs>
</svg>
